<?xml version="1.0" encoding="UTF-8"?>
<svg width="752pt" height="752pt" version="1.1" viewBox="0 0 752 752" xmlns="http://www.w3.org/2000/svg">
 <g fill-rule="evenodd">
  <path d="m376 193.48c-100.8 0-182.52 81.719-182.52 182.52 0 100.81 81.719 182.53 182.52 182.53 100.81 0 182.53-81.719 182.53-182.53 0-100.8-81.719-182.52-182.53-182.52zm-212.12 182.52c0-117.15 94.973-212.12 212.12-212.12 117.16 0 212.12 94.973 212.12 212.12 0 117.16-94.969 212.12-212.12 212.12-117.15 0-212.12-94.969-212.12-212.12z"/>
  <path d="m376 262.54c-62.66 0-113.46 50.801-113.46 113.46 0 62.664 50.801 113.46 113.46 113.46 62.664 0 113.46-50.801 113.46-113.46 0-62.66-50.801-113.46-113.46-113.46z"/>
 </g>
</svg>
